HIERARCHY
ROOT Hips
{
	OFFSET 0.000000 71.427986 0.000000
	CHANNELS 6 Xposition Yposition Zposition Xrotation Yrotation Zrotation
	JOINT Pelvis
	{
		OFFSET 0.000000 0.000000 0.000000
		CHANNELS 3 Xrotation Yrotation Zrotation
		JOINT LeftUpLeg
		{
			OFFSET 6.797100 -2.508499 -1.318700
			CHANNELS 3 Xrotation Yrotation Zrotation
			JOINT LeftLeg
			{
				OFFSET 0.069008 -29.241863 0.690200
				CHANNELS 3 Xrotation Yrotation Zrotation
				JOINT LeftFoot
				{
					OFFSET -0.069008 -29.568123 -0.266800
					CHANNELS 3 Xrotation Yrotation Zrotation
					JOINT LeftToeBase
					{
						OFFSET 3.145500 -8.631000 16.059900
						CHANNELS 3 Xrotation Yrotation Zrotation
						End Site
						{
							OFFSET 0.000000 18.501587 0.000000
						}
					}
				}
			}
			JOINT Left_ShortSleeve
			{
				OFFSET 0.265923 -10.480953 1.153800
				CHANNELS 3 Xrotation Yrotation Zrotation
				End Site
				{
					OFFSET 1.725763 19.823879 0.000000
				}
			}
		}
		JOINT RightUpLeg
		{
			OFFSET -6.797100 -2.508499 -1.318700
			CHANNELS 3 Xrotation Yrotation Zrotation
			JOINT RightLeg
			{
				OFFSET -0.082453 -29.241932 0.688000
				CHANNELS 3 Xrotation Yrotation Zrotation
				JOINT RightFoot
				{
					OFFSET 0.082453 -29.568058 -0.264600
					CHANNELS 3 Xrotation Yrotation Zrotation
					JOINT RightToeBase
					{
						OFFSET -3.115300 -8.682800 16.113400
						CHANNELS 3 Xrotation Yrotation Zrotation
						End Site
						{
							OFFSET 0.000000 18.567114 0.000000
						}
					}
				}
			}
			JOINT Right_ShortSleeve
			{
				OFFSET -0.265923 -10.480953 1.153800
				CHANNELS 3 Xrotation Yrotation Zrotation
				End Site
				{
					OFFSET -1.725766 19.823910 0.000000
				}
			}
		}
	}
	JOINT Spine
	{
		OFFSET 0.000000 13.368103 0.470500
		CHANNELS 3 Xrotation Yrotation Zrotation
		JOINT Spine1
		{
			OFFSET 0.147000 13.837402 0.538800
			CHANNELS 3 Xrotation Yrotation Zrotation
			JOINT Spine2
			{
				OFFSET 0.168000 16.242897 -1.435500
				CHANNELS 3 Xrotation Yrotation Zrotation
				JOINT Neck
				{
					OFFSET 0.217200 18.631500 -1.679100
					CHANNELS 3 Xrotation Yrotation Zrotation
					JOINT Head
					{
						OFFSET 0.000000 6.599396 1.385900
						CHANNELS 3 Xrotation Yrotation Zrotation
						JOINT Hat
						{
							OFFSET -0.532200 27.220596 -10.096100
							CHANNELS 3 Xrotation Yrotation Zrotation
							End Site
							{
								OFFSET 0.000000 22.029861 0.000000
							}
						}
						JOINT HairD
						{
							OFFSET -10.777400 17.437393 -1.325900
							CHANNELS 3 Xrotation Yrotation Zrotation
							JOINT HairD1
							{
								OFFSET -3.290299 -11.051193 1.062200
								CHANNELS 3 Xrotation Yrotation Zrotation
								End Site
								{
									OFFSET 0.000000 11.579437 0.000000
								}
							}
						}
						JOINT HairB
						{
							OFFSET -10.777400 17.437393 1.467900
							CHANNELS 3 Xrotation Yrotation Zrotation
							JOINT HairB1
							{
								OFFSET -1.561200 -12.956299 3.590200
								CHANNELS 3 Xrotation Yrotation Zrotation
								End Site
								{
									OFFSET 0.000000 13.534866 0.000000
								}
							}
						}
						JOINT HairA
						{
							OFFSET 9.713100 17.437393 1.467900
							CHANNELS 3 Xrotation Yrotation Zrotation
							JOINT HairA1
							{
								OFFSET 1.561200 -12.956299 3.590200
								CHANNELS 3 Xrotation Yrotation Zrotation
								End Site
								{
									OFFSET 0.000000 13.534866 0.000000
								}
							}
						}
						JOINT HairC
						{
							OFFSET 9.713100 17.437393 -1.325900
							CHANNELS 3 Xrotation Yrotation Zrotation
							JOINT HairC1
							{
								OFFSET 3.290300 -11.051193 1.062200
								CHANNELS 3 Xrotation Yrotation Zrotation
								End Site
								{
									OFFSET 0.000000 11.579437 0.000000
								}
							}
						}
					}
				}
				JOINT LeftShoulder
				{
					OFFSET 5.101800 15.108002 -2.763700
					CHANNELS 3 Xrotation Yrotation Zrotation
					JOINT LeftArm
					{
						OFFSET 9.825497 2.506317 -1.597400
						CHANNELS 3 Xrotation Yrotation Zrotation
						JOINT LeftForeArm
						{
							OFFSET 21.966244 0.000000 0.000000
							CHANNELS 3 Xrotation Yrotation Zrotation
							JOINT LeftHand
							{
								OFFSET 33.879036 0.000000 0.000000
								CHANNELS 3 Xrotation Yrotation Zrotation
								JOINT LeftHandThumb1
								{
									OFFSET 6.715286 -2.359680 3.363841
									CHANNELS 3 Xrotation Yrotation Zrotation
									JOINT LeftHandThumb2
									{
										OFFSET 2.507072 -1.447464 1.447461
										CHANNELS 3 Xrotation Yrotation Zrotation
										JOINT LeftHandThumb3
										{
											OFFSET 2.898338 -1.673355 1.673357
											CHANNELS 3 Xrotation Yrotation Zrotation
											End Site
											{
												OFFSET -0.295959 3.727692 -0.131651
											}
										}
									}
								}
								JOINT LeftHandIndex1
								{
									OFFSET 14.190811 -0.254547 3.840278
									CHANNELS 3 Xrotation Yrotation Zrotation
									JOINT LeftHandIndex2
									{
										OFFSET 3.551727 0.000000 -0.000000
										CHANNELS 3 Xrotation Yrotation Zrotation
										JOINT LeftHandIndex3
										{
											OFFSET 2.894196 0.000000 0.000000
											CHANNELS 3 Xrotation Yrotation Zrotation
											End Site
											{
												OFFSET -1.000603 2.690872 0.366626
											}
										}
									}
								}
								JOINT LeftHandMiddle1
								{
									OFFSET 13.776489 0.000000 0.000000
									CHANNELS 3 Xrotation Yrotation Zrotation
									JOINT LeftHandMiddle2
									{
										OFFSET 3.438232 0.000000 0.000000
										CHANNELS 3 Xrotation Yrotation Zrotation
										JOINT LeftHandMiddle3
										{
											OFFSET 3.691551 0.000000 0.000000
											CHANNELS 3 Xrotation Yrotation Zrotation
											End Site
											{
												OFFSET -1.082298 3.499527 0.457670
											}
										}
									}
								}
								JOINT LeftHandRing1
								{
									OFFSET 13.966164 -0.268127 -3.067488
									CHANNELS 3 Xrotation Yrotation Zrotation
									JOINT LeftHandRing2
									{
										OFFSET 3.162567 0.000000 0.000000
										CHANNELS 3 Xrotation Yrotation Zrotation
										JOINT LeftHandRing3
										{
											OFFSET 3.324348 0.000000 0.000000
											CHANNELS 3 Xrotation Yrotation Zrotation
											End Site
											{
												OFFSET -0.861900 3.184998 0.405154
											}
										}
									}
								}
								JOINT LeftHandPinky1
								{
									OFFSET 13.131393 -0.168503 -5.746925
									CHANNELS 3 Xrotation Yrotation Zrotation
									JOINT LeftHandPinky2
									{
										OFFSET 2.849182 0.000000 0.000000
										CHANNELS 3 Xrotation Yrotation Zrotation
										JOINT LeftHandPinky3
										{
											OFFSET 2.805038 0.000000 0.000000
											CHANNELS 3 Xrotation Yrotation Zrotation
											End Site
											{
												OFFSET -0.882500 2.642609 0.325652
											}
										}
									}
								}
							}
							JOINT Left_Sleeve
							{
								OFFSET 6.592125 -0.646545 0.805568
								CHANNELS 3 Xrotation Yrotation Zrotation
								End Site
								{
									OFFSET -0.000179 20.275787 -0.000000
								}
							}
						}
					}
				}
				JOINT RightShoulder
				{
					OFFSET -5.731700 15.108002 -2.763700
					CHANNELS 3 Xrotation Yrotation Zrotation
					JOINT RightArm
					{
						OFFSET -9.825497 2.506317 -1.597400
						CHANNELS 3 Xrotation Yrotation Zrotation
						JOINT RightForeArm
						{
							OFFSET -21.966242 0.000000 0.000000
							CHANNELS 3 Xrotation Yrotation Zrotation
							JOINT RightHand
							{
								OFFSET -33.879032 0.000000 0.000000
								CHANNELS 3 Xrotation Yrotation Zrotation
								JOINT RightHandThumb1
								{
									OFFSET -6.715286 -2.359680 3.363841
									CHANNELS 3 Xrotation Yrotation Zrotation
									JOINT RightHandThumb2
									{
										OFFSET -2.507072 -1.447464 1.447461
										CHANNELS 3 Xrotation Yrotation Zrotation
										JOINT RightHandThumb3
										{
											OFFSET -2.898338 -1.673355 1.673357
											CHANNELS 3 Xrotation Yrotation Zrotation
											End Site
											{
												OFFSET 0.295959 3.727692 -0.131651
											}
										}
									}
								}
								JOINT RightHandIndex1
								{
									OFFSET -14.190811 -0.254547 3.840278
									CHANNELS 3 Xrotation Yrotation Zrotation
									JOINT RightHandIndex2
									{
										OFFSET -3.551727 0.000000 -0.000000
										CHANNELS 3 Xrotation Yrotation Zrotation
										JOINT RightHandIndex3
										{
											OFFSET -2.894196 0.000000 0.000000
											CHANNELS 3 Xrotation Yrotation Zrotation
											End Site
											{
												OFFSET 1.000603 2.690872 0.366626
											}
										}
									}
								}
								JOINT RightHandMiddle1
								{
									OFFSET -13.776489 0.000000 0.000000
									CHANNELS 3 Xrotation Yrotation Zrotation
									JOINT RightHandMiddle2
									{
										OFFSET -3.438232 0.000000 0.000000
										CHANNELS 3 Xrotation Yrotation Zrotation
										JOINT RightHandMiddle3
										{
											OFFSET -3.691551 0.000000 0.000000
											CHANNELS 3 Xrotation Yrotation Zrotation
											End Site
											{
												OFFSET 1.082298 3.499527 0.457670
											}
										}
									}
								}
								JOINT RightHandRing1
								{
									OFFSET -13.966164 -0.268127 -3.067488
									CHANNELS 3 Xrotation Yrotation Zrotation
									JOINT RightHandRing2
									{
										OFFSET -3.162567 0.000000 0.000000
										CHANNELS 3 Xrotation Yrotation Zrotation
										JOINT RightHandRing3
										{
											OFFSET -3.324348 0.000000 0.000000
											CHANNELS 3 Xrotation Yrotation Zrotation
											End Site
											{
												OFFSET 0.861900 3.184998 0.405154
											}
										}
									}
								}
								JOINT RightHandPinky1
								{
									OFFSET -13.131393 -0.168503 -5.746925
									CHANNELS 3 Xrotation Yrotation Zrotation
									JOINT RightHandPinky2
									{
										OFFSET -2.849182 0.000000 0.000000
										CHANNELS 3 Xrotation Yrotation Zrotation
										JOINT RightHandPinky3
										{
											OFFSET -2.805038 0.000000 0.000000
											CHANNELS 3 Xrotation Yrotation Zrotation
											End Site
											{
												OFFSET 0.882500 2.642609 0.325652
											}
										}
									}
								}
							}
							JOINT Right_Sleeve
							{
								OFFSET -6.592125 -0.646545 0.805568
								CHANNELS 3 Xrotation Yrotation Zrotation
								End Site
								{
									OFFSET 0.000179 20.275787 -0.000000
								}
							}
						}
					}
				}
				JOINT Bind_Right_JacketString
				{
					OFFSET -3.534800 11.969597 7.200700
					CHANNELS 3 Xrotation Yrotation Zrotation
					JOINT Bind_Right_JacketString1
					{
						OFFSET -0.319900 -6.102600 2.794100
						CHANNELS 3 Xrotation Yrotation Zrotation
						End Site
						{
							OFFSET 0.000000 6.719452 0.000000
						}
					}
				}
				JOINT Bind_Left_JacketString
				{
					OFFSET 2.904800 11.969597 7.200700
					CHANNELS 3 Xrotation Yrotation Zrotation
					JOINT Bind_Left_JacketString1
					{
						OFFSET 0.364800 -5.904503 3.186800
						CHANNELS 3 Xrotation Yrotation Zrotation
						End Site
						{
							OFFSET 0.000000 6.719513 0.000000
						}
					}
				}
				JOINT HairE
				{
					OFFSET 5.915200 17.612701 -11.592200
					CHANNELS 3 Xrotation Yrotation Zrotation
					JOINT HairE1
					{
						OFFSET 0.289200 -7.171898 -1.284500
						CHANNELS 3 Xrotation Yrotation Zrotation
						End Site
						{
							OFFSET 0.000000 7.291756 0.000000
						}
					}
				}
				JOINT HairF
				{
					OFFSET -0.864800 17.612701 -11.592200
					CHANNELS 3 Xrotation Yrotation Zrotation
					JOINT HairF1
					{
						OFFSET 0.000000 -14.087097 -2.127501
						CHANNELS 3 Xrotation Yrotation Zrotation
						End Site
						{
							OFFSET 0.000000 14.246841 0.000000
						}
					}
				}
				JOINT HairG
				{
					OFFSET -8.087700 17.612701 -11.592200
					CHANNELS 3 Xrotation Yrotation Zrotation
					JOINT HairG1
					{
						OFFSET -0.293600 -6.081398 -0.910100
						CHANNELS 3 Xrotation Yrotation Zrotation
						End Site
						{
							OFFSET 0.000000 6.156120 0.000000
						}
					}
				}
			}
		}
	}
	JOINT Pouch
	{
		OFFSET 0.000000 4.394501 10.847300
		CHANNELS 3 Xrotation Yrotation Zrotation
		End Site
		{
			OFFSET 0.000000 21.880577 0.000000
		}
	}
	JOINT Bag
	{
		OFFSET -13.229000 4.813004 -0.593300
		CHANNELS 3 Xrotation Yrotation Zrotation
		End Site
		{
			OFFSET 0.000000 21.880577 0.000000
		}
	}
	JOINT OccupyGuyFacialAnim_Joint
	{
		OFFSET 1.000000 -70.206398 -1.655000
		CHANNELS 3 Xrotation Yrotation Zrotation
		End Site
		{
			OFFSET 0.000000 21.880577 0.000000
		}
	}
}
MOTION
Frames: 4
Frame Time: 0.033333
-0.976682 49.179153 0.846749 10.704511 -49.565061 8.646436 -0.000000 0.000000 -0.000000 -78.320181 -1.745320 9.449218 116.414181 -11.089691 -2.329338 -7.772847 0.845656 4.275104 0.000000 0.000003 -0.000002 -0.000002 -0.000001 -0.000003 -75.697477 -1.792260 7.673554 92.828835 -3.368309 -2.190049 -24.073599 1.242104 -1.516190 -0.000000 -0.000002 -0.000000 0.000001 0.000000 -0.000004 23.574859 3.263746 -8.365239 6.817178 6.527308 3.662891 7.655614 7.091439 2.960680 -4.917959 2.944515 5.137763 -14.469320 19.177843 -3.667224 0.000001 -0.000000 0.000000 0.000001 -0.000000 0.000000 0.000001 -0.000000 -0.000000 0.000001 -0.000000 0.000001 0.000001 0.000001 0.000000 0.000001 -0.000000 0.000001 0.000001 0.000001 0.000000 0.000001 -0.000000 0.000000 0.000001 -0.000000 0.000000 9.919222 -18.825151 -2.247282 -70.555847 -9.702320 -52.132587 -81.217964 12.702253 -86.724073 -40.649017 -6.870720 2.132302 0.699111 9.503397 -2.418113 5.975199 12.647530 1.348343 0.000002 0.000002 0.000001 9.479712 -1.289765 -20.785551 0.709476 2.796427 -28.467090 0.000000 0.000001 0.000002 10.058157 -1.800598 -20.644721 1.774249 4.200518 -45.782113 0.000003 0.000002 -0.000003 1.254236 -0.073732 -17.945767 3.754085 5.463624 -68.965294 -0.000003 0.000001 -0.000001 -7.938264 1.609075 -6.495687 2.210581 4.583693 -51.475185 -0.000001 -0.000004 0.000001 0.000001 0.000004 -0.000001 -1.331983 5.735961 -0.008919 -27.313150 31.932132 51.465267 38.560075 119.220597 -34.722086 -9.089237 3.164590 -6.016116 13.942447 -4.273695 -5.300383 7.113182 -20.767523 -2.619492 0.000001 0.000000 0.000000 0.357749 -5.832722 5.175846 0.094361 -0.933665 11.539862 0.000001 0.000000 0.000000 3.764087 -12.080524 1.143768 5.714281 -4.535875 103.133486 0.000001 -0.000000 0.000001 -12.155629 -12.623910 9.228361 6.566930 -4.248393 114.232332 -0.000001 -0.000001 0.000002 -17.635753 -10.496829 3.325424 4.993661 -4.645026 94.147942 -0.000000 0.000003 0.000001 0.000000 -0.000000 -0.000001 -0.000003 0.000000 -0.000001 -0.000003 -0.000000 0.000001 -0.000003 0.000000 -0.000001 -0.000003 0.000000 -0.000001 -0.000003 0.000000 -0.000001 -0.000003 -0.000000 0.000001 -0.000003 0.000000 -0.000001 -0.000003 0.000000 -0.000001 -0.000003 0.000000 -0.000001 -0.000003 -0.000000 0.000001 -0.000000 0.000000 -0.000000 -0.000000 0.000000 -0.000000 -0.000000 0.000000 -0.000000 
2.459205 48.655853 -2.581000 10.489213 -49.845266 8.094738 -0.000000 0.000002 -0.000000 -68.790694 0.718563 9.677330 121.987998 -8.959364 -2.263454 -11.335239 -1.252843 7.352075 -0.000001 0.000000 -0.000001 -0.000000 0.000001 0.000002 -79.633920 -2.467982 8.042923 88.223962 -3.156002 -2.327397 -15.324626 1.239686 -1.669012 -0.000000 0.000002 0.000000 0.000001 -0.000000 -0.000003 23.264886 3.595490 -7.590713 7.227026 6.694471 3.938117 8.098750 7.282254 3.295977 -4.762374 3.485352 4.821571 -14.547506 18.613616 -4.754430 0.000001 0.000000 -0.000000 0.000001 0.000000 -0.000000 0.000001 0.000000 -0.000001 0.000001 0.000000 -0.000002 0.000001 0.000002 -0.000002 0.000001 0.000000 -0.000002 0.000001 0.000002 -0.000002 0.000001 0.000000 -0.000000 0.000001 0.000000 -0.000000 9.912019 -18.816309 -2.355386 -70.962694 -9.522454 -52.669515 -81.296026 12.186656 -86.222744 -41.525948 -6.695259 1.444973 0.699110 9.503401 -2.418112 5.975198 12.647529 1.348344 0.000001 -0.000000 -0.000001 9.479713 -1.289766 -20.785551 0.709476 2.796423 -28.467084 0.000003 0.000004 0.000002 10.058160 -1.800597 -20.644720 1.774253 4.200509 -45.782116 0.000003 0.000002 -0.000001 1.254236 -0.073731 -17.945769 3.754089 5.463616 -68.965301 -0.000002 0.000001 0.000000 -7.938264 1.609074 -6.495688 2.210586 4.583690 -51.475174 -0.000001 -0.000003 0.000001 -0.000001 -0.000001 -0.000000 -0.919936 5.143905 -0.003487 -28.745439 32.463090 51.345097 39.275066 119.083119 -35.447954 -9.087257 2.289181 -5.387127 13.942447 -4.273693 -5.300385 7.113182 -20.767518 -2.619493 -0.000002 0.000000 0.000001 0.357750 -5.832720 5.175847 0.094360 -0.933665 11.539860 -0.000000 0.000000 -0.000001 3.764088 -12.080529 1.143767 5.714281 -4.535871 103.133486 -0.000000 -0.000000 -0.000003 -12.155630 -12.623911 9.228361 6.566933 -4.248390 114.232325 -0.000000 -0.000001 -0.000004 -17.635755 -10.496830 3.325422 4.993658 -4.645029 94.147942 -0.000001 0.000003 0.000001 -0.000000 0.000000 0.000000 0.000003 0.000003 -0.000003 -0.000000 -0.000002 0.000001 0.000003 0.000003 -0.000002 0.000003 0.000003 -0.000002 0.000003 0.000003 -0.000003 -0.000000 -0.000002 0.000001 0.000003 0.000003 -0.000002 0.000003 0.000003 -0.000002 0.000003 0.000003 -0.000003 -0.000000 -0.000002 0.000001 -0.000000 0.000002 -0.000000 -0.000000 0.000002 -0.000000 -0.000000 0.000002 -0.000000 
5.894527 48.233284 -6.008338 10.486964 -50.212836 7.629648 -0.000000 -0.000001 0.000000 -58.024438 3.401778 9.737823 122.809397 -9.485004 -2.315968 -12.147637 -0.406417 9.984013 -0.000002 -0.000000 -0.000001 -0.000002 0.000001 -0.000001 -82.078964 -3.191702 8.417103 81.677588 -3.902012 -2.583493 -6.292282 2.334240 -1.734601 -0.000000 -0.000002 -0.000000 -0.000000 0.000000 -0.000003 23.113659 3.937863 -6.555175 7.423151 6.834498 4.023766 8.368098 7.410799 3.373653 -4.554839 4.053523 4.576189 -14.587165 18.066554 -5.690147 -0.000000 0.000000 -0.000000 -0.000000 0.000000 -0.000000 -0.000000 0.000000 -0.000001 -0.000000 0.000000 0.000000 -0.000001 0.000000 0.000003 -0.000000 0.000000 0.000000 -0.000001 0.000000 0.000003 -0.000000 0.000000 -0.000000 -0.000000 0.000000 -0.000000 9.902658 -18.804107 -2.504190 -71.125451 -9.430038 -53.163758 -81.323859 11.580812 -85.888229 -42.334691 -6.652461 0.837789 0.699113 9.503401 -2.418112 5.975199 12.647527 1.348344 0.000000 -0.000000 -0.000000 9.479713 -1.289759 -20.785550 0.709476 2.796427 -28.467083 -0.000001 0.000004 0.000006 10.058157 -1.800597 -20.644718 1.774251 4.200510 -45.782116 0.000001 -0.000001 -0.000001 1.254237 -0.073729 -17.945765 3.754088 5.463617 -68.965301 -0.000001 0.000000 0.000001 -7.938266 1.609078 -6.495685 2.210586 4.583693 -51.475185 0.000000 -0.000004 0.000002 0.000001 0.000003 -0.000001 -0.521689 4.653008 0.010818 -29.761508 32.778146 51.092564 39.777376 118.953851 -35.969269 -9.247008 1.739131 -4.771686 13.942446 -4.273695 -5.300384 7.113181 -20.767521 -2.619495 0.000001 -0.000001 0.000000 0.357749 -5.832722 5.175845 0.094360 -0.933667 11.539862 -0.000000 0.000001 0.000000 3.764087 -12.080524 1.143767 5.714280 -4.535871 103.133486 0.000001 0.000000 -0.000001 -12.155630 -12.623910 9.228359 6.566930 -4.248390 114.232332 0.000001 -0.000000 -0.000004 -17.635753 -10.496829 3.325422 4.993659 -4.645028 94.147935 0.000000 0.000002 -0.000001 0.000000 0.000000 0.000000 0.000003 -0.000001 -0.000001 0.000002 0.000001 0.000001 0.000003 -0.000001 -0.000002 0.000003 -0.000001 -0.000002 0.000003 -0.000001 -0.000001 0.000002 0.000001 0.000001 0.000003 -0.000001 -0.000002 0.000003 -0.000001 -0.000002 0.000003 -0.000001 -0.000001 0.000002 0.000001 0.000001 -0.000000 -0.000001 0.000000 -0.000000 -0.000001 0.000000 -0.000000 -0.000001 0.000000 
9.290188 48.031830 -9.385128 10.651109 -50.657508 7.259029 -0.000000 0.000001 0.000000 -46.590694 5.884716 9.526317 119.846884 -11.607994 -2.406846 -14.092515 2.160120 11.864576 0.000000 0.000002 -0.000003 -0.000002 0.000000 -0.000000 -82.675970 -3.754889 8.749689 73.034653 -2.859238 -2.696842 2.976938 1.888122 -2.187892 -0.000000 0.000000 0.000000 -0.000000 -0.000000 -0.000004 23.042425 4.315492 -5.251367 7.600716 6.901650 3.874235 8.652832 7.416494 3.197568 -4.366651 4.590205 4.381162 -14.763398 17.701012 -6.451953 -0.000000 0.000000 0.000001 -0.000000 0.000000 0.000001 -0.000000 0.000000 0.000001 -0.000000 0.000000 0.000001 -0.000001 0.000001 -0.000000 -0.000000 0.000000 0.000001 -0.000001 0.000001 -0.000000 -0.000000 0.000000 0.000001 -0.000000 0.000000 0.000001 9.892639 -18.785491 -2.684565 -71.262717 -9.366109 -53.530337 -81.296395 10.848627 -85.759241 -43.106926 -6.703600 0.323625 0.699110 9.503395 -2.418113 5.975198 12.647528 1.348344 0.000000 0.000001 -0.000001 9.479713 -1.289765 -20.785553 0.709475 2.796428 -28.467079 -0.000004 0.000000 0.000002 10.058158 -1.800599 -20.644720 1.774252 4.200509 -45.782116 0.000001 -0.000001 -0.000005 1.254236 -0.073737 -17.945767 3.754088 5.463625 -68.965294 -0.000003 -0.000002 0.000002 -7.938268 1.609070 -6.495690 2.210583 4.583691 -51.475188 -0.000002 0.000000 0.000001 0.000001 0.000001 0.000000 -0.169657 4.372235 0.030454 -30.530205 32.944144 50.747213 40.350661 118.907515 -36.537342 -9.284473 1.499707 -4.182985 13.942445 -4.273694 -5.300383 7.113183 -20.767521 -2.619495 -0.000001 -0.000001 -0.000000 0.357748 -5.832721 5.175844 0.094360 -0.933666 11.539859 -0.000000 -0.000000 0.000002 3.764087 -12.080526 1.143768 5.714280 -4.535874 103.133486 0.000001 -0.000001 -0.000003 -12.155626 -12.623910 9.228357 6.566931 -4.248390 114.232332 0.000001 0.000003 -0.000003 -17.635753 -10.496826 3.325423 4.993658 -4.645027 94.147942 0.000001 0.000003 -0.000001 -0.000000 0.000000 0.000001 -0.000000 -0.000001 -0.000003 -0.000000 0.000002 -0.000001 -0.000000 -0.000001 -0.000002 -0.000000 -0.000001 -0.000002 -0.000000 -0.000001 -0.000003 -0.000000 0.000002 -0.000001 -0.000000 -0.000001 -0.000002 -0.000000 -0.000001 -0.000002 -0.000000 -0.000001 -0.000003 -0.000000 0.000002 -0.000001 -0.000000 0.000001 0.000000 -0.000000 0.000001 0.000000 -0.000000 0.000001 0.000000 
